<mxfile host="Electron" modified="2024-05-04T10:51:21.988Z" agent="Mozilla/5.0 (X11; Linux x86_64) AppleWebKit/537.36 (KHTML, like Gecko) draw.io/24.2.5 Chrome/120.0.6099.109 Electron/28.1.0 Safari/537.36" etag="RE0rUpmWjPMnKTs2upIg" version="24.2.5" type="device">
  <diagram id="C5RBs43oDa-KdzZeNtuy" name="Page-1">
    <mxGraphModel dx="1619" dy="436" grid="1" gridSize="10" guides="1" tooltips="1" connect="1" arrows="1" fold="1" page="1" pageScale="1" pageWidth="827" pageHeight="1169" math="0" shadow="0">
      <root>
        <mxCell id="WIyWlLk6GJQsqaUBKTNV-0" />
        <mxCell id="WIyWlLk6GJQsqaUBKTNV-1" parent="WIyWlLk6GJQsqaUBKTNV-0" />
        <mxCell id="zkfFHV4jXpPFQw0GAbJ--0" value="PathFidelityProtocol" style="swimlane;fontStyle=2;align=center;verticalAlign=top;childLayout=stackLayout;horizontal=1;startSize=26;horizontalStack=0;resizeParent=1;resizeLast=0;collapsible=1;marginBottom=0;rounded=0;shadow=0;strokeWidth=1;" parent="WIyWlLk6GJQsqaUBKTNV-1" vertex="1">
          <mxGeometry y="120" width="160" height="230" as="geometry">
            <mxRectangle x="230" y="140" width="160" height="26" as="alternateBounds" />
          </mxGeometry>
        </mxCell>
        <mxCell id="Yz1U7CVcsts6lsaazN-v-44" value="- path" style="text;align=left;verticalAlign=top;spacingLeft=4;spacingRight=4;overflow=hidden;rotatable=0;points=[[0,0.5],[1,0.5]];portConstraint=eastwest;" parent="zkfFHV4jXpPFQw0GAbJ--0" vertex="1">
          <mxGeometry y="26" width="160" height="20" as="geometry" />
        </mxCell>
        <mxCell id="v-h0uJ12oh8mbD-hfhip-51" value="- num_runs" style="text;align=left;verticalAlign=top;spacingLeft=4;spacingRight=4;overflow=hidden;rotatable=0;points=[[0,0.5],[1,0.5]];portConstraint=eastwest;" parent="zkfFHV4jXpPFQw0GAbJ--0" vertex="1">
          <mxGeometry y="46" width="160" height="20" as="geometry" />
        </mxCell>
        <mxCell id="v-h0uJ12oh8mbD-hfhip-59" value="- networkmanager" style="text;align=left;verticalAlign=top;spacingLeft=4;spacingRight=4;overflow=hidden;rotatable=0;points=[[0,0.5],[1,0.5]];portConstraint=eastwest;" parent="zkfFHV4jXpPFQw0GAbJ--0" vertex="1">
          <mxGeometry y="66" width="160" height="20" as="geometry" />
        </mxCell>
        <mxCell id="v-h0uJ12oh8mbD-hfhip-56" value="- purif_rounds" style="text;align=left;verticalAlign=top;spacingLeft=4;spacingRight=4;overflow=hidden;rotatable=0;points=[[0,0.5],[1,0.5]];portConstraint=eastwest;" parent="zkfFHV4jXpPFQw0GAbJ--0" vertex="1">
          <mxGeometry y="86" width="160" height="20" as="geometry" />
        </mxCell>
        <mxCell id="v-h0uJ12oh8mbD-hfhip-52" value="name" style="text;align=left;verticalAlign=top;spacingLeft=4;spacingRight=4;overflow=hidden;rotatable=0;points=[[0,0.5],[1,0.5]];portConstraint=eastwest;" parent="zkfFHV4jXpPFQw0GAbJ--0" vertex="1">
          <mxGeometry y="106" width="160" height="20" as="geometry" />
        </mxCell>
        <mxCell id="v-h0uJ12oh8mbD-hfhip-62" value="- ent_request" style="text;align=left;verticalAlign=top;spacingLeft=4;spacingRight=4;overflow=hidden;rotatable=0;points=[[0,0.5],[1,0.5]];portConstraint=eastwest;" parent="zkfFHV4jXpPFQw0GAbJ--0" vertex="1">
          <mxGeometry y="126" width="160" height="20" as="geometry" />
        </mxCell>
        <mxCell id="v-h0uJ12oh8mbD-hfhip-63" value="- start_expression" style="text;align=left;verticalAlign=top;spacingLeft=4;spacingRight=4;overflow=hidden;rotatable=0;points=[[0,0.5],[1,0.5]];portConstraint=eastwest;" parent="zkfFHV4jXpPFQw0GAbJ--0" vertex="1">
          <mxGeometry y="146" width="160" height="20" as="geometry" />
        </mxCell>
        <mxCell id="zkfFHV4jXpPFQw0GAbJ--4" value="" style="line;html=1;strokeWidth=1;align=left;verticalAlign=middle;spacingTop=-1;spacingLeft=3;spacingRight=3;rotatable=0;labelPosition=right;points=[];portConstraint=eastwest;" parent="zkfFHV4jXpPFQw0GAbJ--0" vertex="1">
          <mxGeometry y="166" width="160" height="14" as="geometry" />
        </mxCell>
        <mxCell id="v-h0uJ12oh8mbD-hfhip-36" value="run" style="text;align=left;verticalAlign=top;spacingLeft=4;spacingRight=4;overflow=hidden;rotatable=0;points=[[0,0.5],[1,0.5]];portConstraint=eastwest;" parent="zkfFHV4jXpPFQw0GAbJ--0" vertex="1">
          <mxGeometry y="180" width="160" height="20" as="geometry" />
        </mxCell>
        <mxCell id="v-h0uJ12oh8mbD-hfhip-67" value="set_purif_rounds" style="text;align=left;verticalAlign=top;spacingLeft=4;spacingRight=4;overflow=hidden;rotatable=0;points=[[0,0.5],[1,0.5]];portConstraint=eastwest;" parent="zkfFHV4jXpPFQw0GAbJ--0" vertex="1">
          <mxGeometry y="200" width="160" height="20" as="geometry" />
        </mxCell>
        <mxCell id="zkfFHV4jXpPFQw0GAbJ--17" value="LocalProtocol" style="swimlane;fontStyle=0;align=center;verticalAlign=top;childLayout=stackLayout;horizontal=1;startSize=26;horizontalStack=0;resizeParent=1;resizeLast=0;collapsible=1;marginBottom=0;rounded=0;shadow=0;strokeWidth=1;fillColor=#c8c8c8;" parent="WIyWlLk6GJQsqaUBKTNV-1" vertex="1">
          <mxGeometry x="190" y="30" width="160" height="40" as="geometry">
            <mxRectangle x="550" y="140" width="160" height="26" as="alternateBounds" />
          </mxGeometry>
        </mxCell>
        <mxCell id="zkfFHV4jXpPFQw0GAbJ--23" value="" style="line;html=1;strokeWidth=1;align=left;verticalAlign=middle;spacingTop=-1;spacingLeft=3;spacingRight=3;rotatable=0;labelPosition=right;points=[];portConstraint=eastwest;" parent="zkfFHV4jXpPFQw0GAbJ--17" vertex="1">
          <mxGeometry y="26" width="160" height="8" as="geometry" />
        </mxCell>
        <mxCell id="Yz1U7CVcsts6lsaazN-v-0" value="NodeProtocol" style="swimlane;fontStyle=0;align=center;verticalAlign=top;childLayout=stackLayout;horizontal=1;startSize=26;horizontalStack=0;resizeParent=1;resizeLast=0;collapsible=1;marginBottom=0;rounded=0;shadow=0;strokeWidth=1;fillColor=#c8c8c8;" parent="WIyWlLk6GJQsqaUBKTNV-1" vertex="1">
          <mxGeometry x="545" y="630" width="160" height="40" as="geometry">
            <mxRectangle x="550" y="140" width="160" height="26" as="alternateBounds" />
          </mxGeometry>
        </mxCell>
        <mxCell id="Yz1U7CVcsts6lsaazN-v-1" value="" style="line;html=1;strokeWidth=1;align=left;verticalAlign=middle;spacingTop=-1;spacingLeft=3;spacingRight=3;rotatable=0;labelPosition=right;points=[];portConstraint=eastwest;" parent="Yz1U7CVcsts6lsaazN-v-0" vertex="1">
          <mxGeometry y="26" width="160" height="8" as="geometry" />
        </mxCell>
        <mxCell id="Yz1U7CVcsts6lsaazN-v-4" value="SwapProtocol" style="swimlane;fontStyle=2;align=center;verticalAlign=top;childLayout=stackLayout;horizontal=1;startSize=26;horizontalStack=0;resizeParent=1;resizeLast=0;collapsible=1;marginBottom=0;rounded=0;shadow=0;strokeWidth=1;" parent="WIyWlLk6GJQsqaUBKTNV-1" vertex="1">
          <mxGeometry x="125" y="560" width="130" height="220" as="geometry">
            <mxRectangle x="230" y="140" width="160" height="26" as="alternateBounds" />
          </mxGeometry>
        </mxCell>
        <mxCell id="v-h0uJ12oh8mbD-hfhip-71" value="name" style="text;align=left;verticalAlign=top;spacingLeft=4;spacingRight=4;overflow=hidden;rotatable=0;points=[[0,0.5],[1,0.5]];portConstraint=eastwest;" parent="Yz1U7CVcsts6lsaazN-v-4" vertex="1">
          <mxGeometry y="26" width="130" height="20" as="geometry" />
        </mxCell>
        <mxCell id="v-h0uJ12oh8mbD-hfhip-73" value="- index" style="text;align=left;verticalAlign=top;spacingLeft=4;spacingRight=4;overflow=hidden;rotatable=0;points=[[0,0.5],[1,0.5]];portConstraint=eastwest;" parent="Yz1U7CVcsts6lsaazN-v-4" vertex="1">
          <mxGeometry y="46" width="130" height="20" as="geometry" />
        </mxCell>
        <mxCell id="v-h0uJ12oh8mbD-hfhip-74" value="- request" style="text;align=left;verticalAlign=top;spacingLeft=4;spacingRight=4;overflow=hidden;rotatable=0;points=[[0,0.5],[1,0.5]];portConstraint=eastwest;" parent="Yz1U7CVcsts6lsaazN-v-4" vertex="1">
          <mxGeometry y="66" width="130" height="20" as="geometry" />
        </mxCell>
        <mxCell id="v-h0uJ12oh8mbD-hfhip-75" value="- mem_left" style="text;align=left;verticalAlign=top;spacingLeft=4;spacingRight=4;overflow=hidden;rotatable=0;points=[[0,0.5],[1,0.5]];portConstraint=eastwest;" parent="Yz1U7CVcsts6lsaazN-v-4" vertex="1">
          <mxGeometry y="86" width="130" height="20" as="geometry" />
        </mxCell>
        <mxCell id="v-h0uJ12oh8mbD-hfhip-76" value="- mem_right" style="text;align=left;verticalAlign=top;spacingLeft=4;spacingRight=4;overflow=hidden;rotatable=0;points=[[0,0.5],[1,0.5]];portConstraint=eastwest;" parent="Yz1U7CVcsts6lsaazN-v-4" vertex="1">
          <mxGeometry y="106" width="130" height="20" as="geometry" />
        </mxCell>
        <mxCell id="v-h0uJ12oh8mbD-hfhip-77" value="- qmem_input_port_l" style="text;align=left;verticalAlign=top;spacingLeft=4;spacingRight=4;overflow=hidden;rotatable=0;points=[[0,0.5],[1,0.5]];portConstraint=eastwest;" parent="Yz1U7CVcsts6lsaazN-v-4" vertex="1">
          <mxGeometry y="126" width="130" height="20" as="geometry" />
        </mxCell>
        <mxCell id="v-h0uJ12oh8mbD-hfhip-78" value="- qmem_input_port_r" style="text;align=left;verticalAlign=top;spacingLeft=4;spacingRight=4;overflow=hidden;rotatable=0;points=[[0,0.5],[1,0.5]];portConstraint=eastwest;" parent="Yz1U7CVcsts6lsaazN-v-4" vertex="1">
          <mxGeometry y="146" width="130" height="20" as="geometry" />
        </mxCell>
        <mxCell id="v-h0uJ12oh8mbD-hfhip-79" value="- program" style="text;align=left;verticalAlign=top;spacingLeft=4;spacingRight=4;overflow=hidden;rotatable=0;points=[[0,0.5],[1,0.5]];portConstraint=eastwest;" parent="Yz1U7CVcsts6lsaazN-v-4" vertex="1">
          <mxGeometry y="166" width="130" height="20" as="geometry" />
        </mxCell>
        <mxCell id="Yz1U7CVcsts6lsaazN-v-5" value="" style="line;html=1;strokeWidth=1;align=left;verticalAlign=middle;spacingTop=-1;spacingLeft=3;spacingRight=3;rotatable=0;labelPosition=right;points=[];portConstraint=eastwest;" parent="Yz1U7CVcsts6lsaazN-v-4" vertex="1">
          <mxGeometry y="186" width="130" height="14" as="geometry" />
        </mxCell>
        <mxCell id="v-h0uJ12oh8mbD-hfhip-128" value="run" style="text;align=left;verticalAlign=top;spacingLeft=4;spacingRight=4;overflow=hidden;rotatable=0;points=[[0,0.5],[1,0.5]];portConstraint=eastwest;" parent="Yz1U7CVcsts6lsaazN-v-4" vertex="1">
          <mxGeometry y="200" width="130" height="20" as="geometry" />
        </mxCell>
        <mxCell id="Yz1U7CVcsts6lsaazN-v-6" value="CorrectProtocol" style="swimlane;fontStyle=2;align=center;verticalAlign=top;childLayout=stackLayout;horizontal=1;startSize=26;horizontalStack=0;resizeParent=1;resizeLast=0;collapsible=1;marginBottom=0;rounded=0;shadow=0;strokeWidth=1;" parent="WIyWlLk6GJQsqaUBKTNV-1" vertex="1">
          <mxGeometry x="-45" y="530" width="130" height="280" as="geometry">
            <mxRectangle x="230" y="140" width="160" height="26" as="alternateBounds" />
          </mxGeometry>
        </mxCell>
        <mxCell id="v-h0uJ12oh8mbD-hfhip-72" value="name" style="text;align=left;verticalAlign=top;spacingLeft=4;spacingRight=4;overflow=hidden;rotatable=0;points=[[0,0.5],[1,0.5]];portConstraint=eastwest;" parent="Yz1U7CVcsts6lsaazN-v-6" vertex="1">
          <mxGeometry y="26" width="130" height="20" as="geometry" />
        </mxCell>
        <mxCell id="v-h0uJ12oh8mbD-hfhip-84" value="- mempos" style="text;align=left;verticalAlign=top;spacingLeft=4;spacingRight=4;overflow=hidden;rotatable=0;points=[[0,0.5],[1,0.5]];portConstraint=eastwest;" parent="Yz1U7CVcsts6lsaazN-v-6" vertex="1">
          <mxGeometry y="46" width="130" height="20" as="geometry" />
        </mxCell>
        <mxCell id="v-h0uJ12oh8mbD-hfhip-85" value="num_nodes" style="text;align=left;verticalAlign=top;spacingLeft=4;spacingRight=4;overflow=hidden;rotatable=0;points=[[0,0.5],[1,0.5]];portConstraint=eastwest;" parent="Yz1U7CVcsts6lsaazN-v-6" vertex="1">
          <mxGeometry y="66" width="130" height="20" as="geometry" />
        </mxCell>
        <mxCell id="v-h0uJ12oh8mbD-hfhip-86" value="- request" style="text;align=left;verticalAlign=top;spacingLeft=4;spacingRight=4;overflow=hidden;rotatable=0;points=[[0,0.5],[1,0.5]];portConstraint=eastwest;" parent="Yz1U7CVcsts6lsaazN-v-6" vertex="1">
          <mxGeometry y="86" width="130" height="20" as="geometry" />
        </mxCell>
        <mxCell id="v-h0uJ12oh8mbD-hfhip-87" value="- index" style="text;align=left;verticalAlign=top;spacingLeft=4;spacingRight=4;overflow=hidden;rotatable=0;points=[[0,0.5],[1,0.5]];portConstraint=eastwest;" parent="Yz1U7CVcsts6lsaazN-v-6" vertex="1">
          <mxGeometry y="106" width="130" height="20" as="geometry" />
        </mxCell>
        <mxCell id="v-h0uJ12oh8mbD-hfhip-88" value="- x_corr" style="text;align=left;verticalAlign=top;spacingLeft=4;spacingRight=4;overflow=hidden;rotatable=0;points=[[0,0.5],[1,0.5]];portConstraint=eastwest;" parent="Yz1U7CVcsts6lsaazN-v-6" vertex="1">
          <mxGeometry y="126" width="130" height="20" as="geometry" />
        </mxCell>
        <mxCell id="v-h0uJ12oh8mbD-hfhip-89" value="- z_corr" style="text;align=left;verticalAlign=top;spacingLeft=4;spacingRight=4;overflow=hidden;rotatable=0;points=[[0,0.5],[1,0.5]];portConstraint=eastwest;" parent="Yz1U7CVcsts6lsaazN-v-6" vertex="1">
          <mxGeometry y="146" width="130" height="20" as="geometry" />
        </mxCell>
        <mxCell id="v-h0uJ12oh8mbD-hfhip-90" value="- program" style="text;align=left;verticalAlign=top;spacingLeft=4;spacingRight=4;overflow=hidden;rotatable=0;points=[[0,0.5],[1,0.5]];portConstraint=eastwest;" parent="Yz1U7CVcsts6lsaazN-v-6" vertex="1">
          <mxGeometry y="166" width="130" height="20" as="geometry" />
        </mxCell>
        <mxCell id="v-h0uJ12oh8mbD-hfhip-91" value="- counter" style="text;align=left;verticalAlign=top;spacingLeft=4;spacingRight=4;overflow=hidden;rotatable=0;points=[[0,0.5],[1,0.5]];portConstraint=eastwest;" parent="Yz1U7CVcsts6lsaazN-v-6" vertex="1">
          <mxGeometry y="186" width="130" height="20" as="geometry" />
        </mxCell>
        <mxCell id="v-h0uJ12oh8mbD-hfhip-92" value="- restart_signal" style="text;align=left;verticalAlign=top;spacingLeft=4;spacingRight=4;overflow=hidden;rotatable=0;points=[[0,0.5],[1,0.5]];portConstraint=eastwest;" parent="Yz1U7CVcsts6lsaazN-v-6" vertex="1">
          <mxGeometry y="206" width="130" height="20" as="geometry" />
        </mxCell>
        <mxCell id="v-h0uJ12oh8mbD-hfhip-93" value="- restart_expression" style="text;align=left;verticalAlign=top;spacingLeft=4;spacingRight=4;overflow=hidden;rotatable=0;points=[[0,0.5],[1,0.5]];portConstraint=eastwest;" parent="Yz1U7CVcsts6lsaazN-v-6" vertex="1">
          <mxGeometry y="226" width="130" height="20" as="geometry" />
        </mxCell>
        <mxCell id="Yz1U7CVcsts6lsaazN-v-7" value="" style="line;html=1;strokeWidth=1;align=left;verticalAlign=middle;spacingTop=-1;spacingLeft=3;spacingRight=3;rotatable=0;labelPosition=right;points=[];portConstraint=eastwest;" parent="Yz1U7CVcsts6lsaazN-v-6" vertex="1">
          <mxGeometry y="246" width="130" height="14" as="geometry" />
        </mxCell>
        <mxCell id="Yz1U7CVcsts6lsaazN-v-39" value="run" style="text;align=left;verticalAlign=top;spacingLeft=4;spacingRight=4;overflow=hidden;rotatable=0;points=[[0,0.5],[1,0.5]];portConstraint=eastwest;" parent="Yz1U7CVcsts6lsaazN-v-6" vertex="1">
          <mxGeometry y="260" width="130" height="20" as="geometry" />
        </mxCell>
        <mxCell id="Yz1U7CVcsts6lsaazN-v-8" value="DistilProtocol" style="swimlane;fontStyle=2;align=center;verticalAlign=top;childLayout=stackLayout;horizontal=1;startSize=26;horizontalStack=0;resizeParent=1;resizeLast=0;collapsible=1;marginBottom=0;rounded=0;shadow=0;strokeWidth=1;" parent="WIyWlLk6GJQsqaUBKTNV-1" vertex="1">
          <mxGeometry x="290" y="585" width="160" height="510" as="geometry">
            <mxRectangle x="230" y="140" width="160" height="26" as="alternateBounds" />
          </mxGeometry>
        </mxCell>
        <mxCell id="v-h0uJ12oh8mbD-hfhip-70" value="name" style="text;align=left;verticalAlign=top;spacingLeft=4;spacingRight=4;overflow=hidden;rotatable=0;points=[[0,0.5],[1,0.5]];portConstraint=eastwest;" parent="Yz1U7CVcsts6lsaazN-v-8" vertex="1">
          <mxGeometry y="26" width="160" height="20" as="geometry" />
        </mxCell>
        <mxCell id="v-h0uJ12oh8mbD-hfhip-94" value="- INSTR_Rx" style="text;align=left;verticalAlign=top;spacingLeft=4;spacingRight=4;overflow=hidden;rotatable=0;points=[[0,0.5],[1,0.5]];portConstraint=eastwest;" parent="Yz1U7CVcsts6lsaazN-v-8" vertex="1">
          <mxGeometry y="46" width="160" height="20" as="geometry" />
        </mxCell>
        <mxCell id="v-h0uJ12oh8mbD-hfhip-95" value="- INSTR_RxC" style="text;align=left;verticalAlign=top;spacingLeft=4;spacingRight=4;overflow=hidden;rotatable=0;points=[[0,0.5],[1,0.5]];portConstraint=eastwest;" parent="Yz1U7CVcsts6lsaazN-v-8" vertex="1">
          <mxGeometry y="66" width="160" height="20" as="geometry" />
        </mxCell>
        <mxCell id="v-h0uJ12oh8mbD-hfhip-96" value="port" style="text;align=left;verticalAlign=top;spacingLeft=4;spacingRight=4;overflow=hidden;rotatable=0;points=[[0,0.5],[1,0.5]];portConstraint=eastwest;" parent="Yz1U7CVcsts6lsaazN-v-8" vertex="1">
          <mxGeometry y="86" width="160" height="20" as="geometry" />
        </mxCell>
        <mxCell id="v-h0uJ12oh8mbD-hfhip-97" value="start_expression" style="text;align=left;verticalAlign=top;spacingLeft=4;spacingRight=4;overflow=hidden;rotatable=0;points=[[0,0.5],[1,0.5]];portConstraint=eastwest;" parent="Yz1U7CVcsts6lsaazN-v-8" vertex="1">
          <mxGeometry y="106" width="160" height="20" as="geometry" />
        </mxCell>
        <mxCell id="v-h0uJ12oh8mbD-hfhip-98" value="- program" style="text;align=left;verticalAlign=top;spacingLeft=4;spacingRight=4;overflow=hidden;rotatable=0;points=[[0,0.5],[1,0.5]];portConstraint=eastwest;" parent="Yz1U7CVcsts6lsaazN-v-8" vertex="1">
          <mxGeometry y="126" width="160" height="20" as="geometry" />
        </mxCell>
        <mxCell id="v-h0uJ12oh8mbD-hfhip-99" value="local_qcount" style="text;align=left;verticalAlign=top;spacingLeft=4;spacingRight=4;overflow=hidden;rotatable=0;points=[[0,0.5],[1,0.5]];portConstraint=eastwest;" parent="Yz1U7CVcsts6lsaazN-v-8" vertex="1">
          <mxGeometry y="146" width="160" height="20" as="geometry" />
        </mxCell>
        <mxCell id="v-h0uJ12oh8mbD-hfhip-100" value="local_meas_result" style="text;align=left;verticalAlign=top;spacingLeft=4;spacingRight=4;overflow=hidden;rotatable=0;points=[[0,0.5],[1,0.5]];portConstraint=eastwest;" parent="Yz1U7CVcsts6lsaazN-v-8" vertex="1">
          <mxGeometry y="166" width="160" height="20" as="geometry" />
        </mxCell>
        <mxCell id="v-h0uJ12oh8mbD-hfhip-102" value="remote_qcount" style="text;align=left;verticalAlign=top;spacingLeft=4;spacingRight=4;overflow=hidden;rotatable=0;points=[[0,0.5],[1,0.5]];portConstraint=eastwest;" parent="Yz1U7CVcsts6lsaazN-v-8" vertex="1">
          <mxGeometry y="186" width="160" height="20" as="geometry" />
        </mxCell>
        <mxCell id="v-h0uJ12oh8mbD-hfhip-101" value="remote_meas_result" style="text;align=left;verticalAlign=top;spacingLeft=4;spacingRight=4;overflow=hidden;rotatable=0;points=[[0,0.5],[1,0.5]];portConstraint=eastwest;" parent="Yz1U7CVcsts6lsaazN-v-8" vertex="1">
          <mxGeometry y="206" width="160" height="20" as="geometry" />
        </mxCell>
        <mxCell id="v-h0uJ12oh8mbD-hfhip-103" value="header" style="text;align=left;verticalAlign=top;spacingLeft=4;spacingRight=4;overflow=hidden;rotatable=0;points=[[0,0.5],[1,0.5]];portConstraint=eastwest;" parent="Yz1U7CVcsts6lsaazN-v-8" vertex="1">
          <mxGeometry y="226" width="160" height="20" as="geometry" />
        </mxCell>
        <mxCell id="v-h0uJ12oh8mbD-hfhip-104" value="- qmem_positions" style="text;align=left;verticalAlign=top;spacingLeft=4;spacingRight=4;overflow=hidden;rotatable=0;points=[[0,0.5],[1,0.5]];portConstraint=eastwest;" parent="Yz1U7CVcsts6lsaazN-v-8" vertex="1">
          <mxGeometry y="246" width="160" height="20" as="geometry" />
        </mxCell>
        <mxCell id="v-h0uJ12oh8mbD-hfhip-105" value="- waiting_on_second_qubit" style="text;align=left;verticalAlign=top;spacingLeft=4;spacingRight=4;overflow=hidden;rotatable=0;points=[[0,0.5],[1,0.5]];portConstraint=eastwest;" parent="Yz1U7CVcsts6lsaazN-v-8" vertex="1">
          <mxGeometry y="266" width="160" height="20" as="geometry" />
        </mxCell>
        <mxCell id="v-h0uJ12oh8mbD-hfhip-106" value="- mem_pos1" style="text;align=left;verticalAlign=top;spacingLeft=4;spacingRight=4;overflow=hidden;rotatable=0;points=[[0,0.5],[1,0.5]];portConstraint=eastwest;" parent="Yz1U7CVcsts6lsaazN-v-8" vertex="1">
          <mxGeometry y="286" width="160" height="20" as="geometry" />
        </mxCell>
        <mxCell id="v-h0uJ12oh8mbD-hfhip-107" value="- mem_pos2" style="text;align=left;verticalAlign=top;spacingLeft=4;spacingRight=4;overflow=hidden;rotatable=0;points=[[0,0.5],[1,0.5]];portConstraint=eastwest;" parent="Yz1U7CVcsts6lsaazN-v-8" vertex="1">
          <mxGeometry y="306" width="160" height="20" as="geometry" />
        </mxCell>
        <mxCell id="v-h0uJ12oh8mbD-hfhip-108" value="- result_signal" style="text;align=left;verticalAlign=top;spacingLeft=4;spacingRight=4;overflow=hidden;rotatable=0;points=[[0,0.5],[1,0.5]];portConstraint=eastwest;" parent="Yz1U7CVcsts6lsaazN-v-8" vertex="1">
          <mxGeometry y="326" width="160" height="20" as="geometry" />
        </mxCell>
        <mxCell id="v-h0uJ12oh8mbD-hfhip-109" value="- _start_purif_signal" style="text;align=left;verticalAlign=top;spacingLeft=4;spacingRight=4;overflow=hidden;rotatable=0;points=[[0,0.5],[1,0.5]];portConstraint=eastwest;" parent="Yz1U7CVcsts6lsaazN-v-8" vertex="1">
          <mxGeometry y="346" width="160" height="20" as="geometry" />
        </mxCell>
        <mxCell id="Yz1U7CVcsts6lsaazN-v-9" value="" style="line;html=1;strokeWidth=1;align=left;verticalAlign=middle;spacingTop=-1;spacingLeft=3;spacingRight=3;rotatable=0;labelPosition=right;points=[];portConstraint=eastwest;" parent="Yz1U7CVcsts6lsaazN-v-8" vertex="1">
          <mxGeometry y="366" width="160" height="4" as="geometry" />
        </mxCell>
        <mxCell id="v-h0uJ12oh8mbD-hfhip-110" value="run" style="text;align=left;verticalAlign=top;spacingLeft=4;spacingRight=4;overflow=hidden;rotatable=0;points=[[0,0.5],[1,0.5]];portConstraint=eastwest;" parent="Yz1U7CVcsts6lsaazN-v-8" vertex="1">
          <mxGeometry y="370" width="160" height="20" as="geometry" />
        </mxCell>
        <mxCell id="v-h0uJ12oh8mbD-hfhip-111" value="start" style="text;align=left;verticalAlign=top;spacingLeft=4;spacingRight=4;overflow=hidden;rotatable=0;points=[[0,0.5],[1,0.5]];portConstraint=eastwest;" parent="Yz1U7CVcsts6lsaazN-v-8" vertex="1">
          <mxGeometry y="390" width="160" height="20" as="geometry" />
        </mxCell>
        <mxCell id="Yz1U7CVcsts6lsaazN-v-41" value="- clear_qmem_positions" style="text;align=left;verticalAlign=top;spacingLeft=4;spacingRight=4;overflow=hidden;rotatable=0;points=[[0,0.5],[1,0.5]];portConstraint=eastwest;" parent="Yz1U7CVcsts6lsaazN-v-8" vertex="1">
          <mxGeometry y="410" width="160" height="20" as="geometry" />
        </mxCell>
        <mxCell id="v-h0uJ12oh8mbD-hfhip-112" value="- _setup_dejmp_program" style="text;align=left;verticalAlign=top;spacingLeft=4;spacingRight=4;overflow=hidden;rotatable=0;points=[[0,0.5],[1,0.5]];portConstraint=eastwest;" parent="Yz1U7CVcsts6lsaazN-v-8" vertex="1">
          <mxGeometry y="430" width="160" height="20" as="geometry" />
        </mxCell>
        <mxCell id="Yz1U7CVcsts6lsaazN-v-40" value="- _node_do_DEJMPS" style="text;align=left;verticalAlign=top;spacingLeft=4;spacingRight=4;overflow=hidden;rotatable=0;points=[[0,0.5],[1,0.5]];portConstraint=eastwest;" parent="Yz1U7CVcsts6lsaazN-v-8" vertex="1">
          <mxGeometry y="450" width="160" height="20" as="geometry" />
        </mxCell>
        <mxCell id="Yz1U7CVcsts6lsaazN-v-42" value="- _handle_new_qubit" style="text;align=left;verticalAlign=top;spacingLeft=4;spacingRight=4;overflow=hidden;rotatable=0;points=[[0,0.5],[1,0.5]];portConstraint=eastwest;" parent="Yz1U7CVcsts6lsaazN-v-8" vertex="1">
          <mxGeometry y="470" width="160" height="20" as="geometry" />
        </mxCell>
        <mxCell id="Yz1U7CVcsts6lsaazN-v-43" value="- _check_success" style="text;align=left;verticalAlign=top;spacingLeft=4;spacingRight=4;overflow=hidden;rotatable=0;points=[[0,0.5],[1,0.5]];portConstraint=eastwest;" parent="Yz1U7CVcsts6lsaazN-v-8" vertex="1">
          <mxGeometry y="490" width="160" height="20" as="geometry" />
        </mxCell>
        <mxCell id="Yz1U7CVcsts6lsaazN-v-21" value="" style="endArrow=block;endSize=10;endFill=0;shadow=0;strokeWidth=1;rounded=0;curved=0;edgeStyle=elbowEdgeStyle;elbow=vertical;exitX=0.5;exitY=0;exitDx=0;exitDy=0;entryX=0.5;entryY=1;entryDx=0;entryDy=0;" parent="WIyWlLk6GJQsqaUBKTNV-1" source="zkfFHV4jXpPFQw0GAbJ--0" target="zkfFHV4jXpPFQw0GAbJ--17" edge="1">
          <mxGeometry width="160" relative="1" as="geometry">
            <mxPoint x="415" y="302" as="sourcePoint" />
            <mxPoint x="410" y="382" as="targetPoint" />
            <Array as="points" />
          </mxGeometry>
        </mxCell>
        <mxCell id="Yz1U7CVcsts6lsaazN-v-34" value="SwapCorrectProgram" style="swimlane;fontStyle=2;align=center;verticalAlign=top;childLayout=stackLayout;horizontal=1;startSize=26;horizontalStack=0;resizeParent=1;resizeLast=0;collapsible=1;marginBottom=0;rounded=0;shadow=0;strokeWidth=1;" parent="WIyWlLk6GJQsqaUBKTNV-1" vertex="1">
          <mxGeometry x="-45" y="863" width="150" height="110" as="geometry">
            <mxRectangle x="230" y="140" width="160" height="26" as="alternateBounds" />
          </mxGeometry>
        </mxCell>
        <mxCell id="v-h0uJ12oh8mbD-hfhip-80" value="x_corr" style="text;align=left;verticalAlign=top;spacingLeft=4;spacingRight=4;overflow=hidden;rotatable=0;points=[[0,0.5],[1,0.5]];portConstraint=eastwest;" parent="Yz1U7CVcsts6lsaazN-v-34" vertex="1">
          <mxGeometry y="26" width="150" height="20" as="geometry" />
        </mxCell>
        <mxCell id="v-h0uJ12oh8mbD-hfhip-81" value="z_corr" style="text;align=left;verticalAlign=top;spacingLeft=4;spacingRight=4;overflow=hidden;rotatable=0;points=[[0,0.5],[1,0.5]];portConstraint=eastwest;" parent="Yz1U7CVcsts6lsaazN-v-34" vertex="1">
          <mxGeometry y="46" width="150" height="20" as="geometry" />
        </mxCell>
        <mxCell id="Yz1U7CVcsts6lsaazN-v-35" value="" style="line;html=1;strokeWidth=1;align=left;verticalAlign=middle;spacingTop=-1;spacingLeft=3;spacingRight=3;rotatable=0;labelPosition=right;points=[];portConstraint=eastwest;" parent="Yz1U7CVcsts6lsaazN-v-34" vertex="1">
          <mxGeometry y="66" width="150" height="4" as="geometry" />
        </mxCell>
        <mxCell id="v-h0uJ12oh8mbD-hfhip-82" value="set_corrections" style="text;align=left;verticalAlign=top;spacingLeft=4;spacingRight=4;overflow=hidden;rotatable=0;points=[[0,0.5],[1,0.5]];portConstraint=eastwest;" parent="Yz1U7CVcsts6lsaazN-v-34" vertex="1">
          <mxGeometry y="70" width="150" height="20" as="geometry" />
        </mxCell>
        <mxCell id="v-h0uJ12oh8mbD-hfhip-83" value="program" style="text;align=left;verticalAlign=top;spacingLeft=4;spacingRight=4;overflow=hidden;rotatable=0;points=[[0,0.5],[1,0.5]];portConstraint=eastwest;" parent="Yz1U7CVcsts6lsaazN-v-34" vertex="1">
          <mxGeometry y="90" width="150" height="20" as="geometry" />
        </mxCell>
        <mxCell id="Yz1U7CVcsts6lsaazN-v-58" value="QuantumProgram" style="swimlane;fontStyle=0;align=center;verticalAlign=top;childLayout=stackLayout;horizontal=1;startSize=26;horizontalStack=0;resizeParent=1;resizeLast=0;collapsible=1;marginBottom=0;rounded=0;shadow=0;strokeWidth=1;fillColor=#c8c8c8;" parent="WIyWlLk6GJQsqaUBKTNV-1" vertex="1">
          <mxGeometry x="110" y="1013" width="160" height="40" as="geometry">
            <mxRectangle x="550" y="140" width="160" height="26" as="alternateBounds" />
          </mxGeometry>
        </mxCell>
        <mxCell id="Yz1U7CVcsts6lsaazN-v-59" value="" style="line;html=1;strokeWidth=1;align=left;verticalAlign=middle;spacingTop=-1;spacingLeft=3;spacingRight=3;rotatable=0;labelPosition=right;points=[];portConstraint=eastwest;" parent="Yz1U7CVcsts6lsaazN-v-58" vertex="1">
          <mxGeometry y="26" width="160" height="8" as="geometry" />
        </mxCell>
        <mxCell id="Yz1U7CVcsts6lsaazN-v-60" value="" style="endArrow=block;endSize=10;endFill=0;shadow=0;strokeWidth=1;rounded=0;curved=0;edgeStyle=elbowEdgeStyle;elbow=vertical;exitX=0.75;exitY=1;exitDx=0;exitDy=0;entryX=0.45;entryY=0.05;entryDx=0;entryDy=0;entryPerimeter=0;" parent="WIyWlLk6GJQsqaUBKTNV-1" source="Yz1U7CVcsts6lsaazN-v-34" target="Yz1U7CVcsts6lsaazN-v-58" edge="1">
          <mxGeometry width="160" relative="1" as="geometry">
            <mxPoint x="250" y="923" as="sourcePoint" />
            <mxPoint x="381" y="883" as="targetPoint" />
            <Array as="points">
              <mxPoint x="135" y="983" />
            </Array>
          </mxGeometry>
        </mxCell>
        <mxCell id="v-h0uJ12oh8mbD-hfhip-0" value="NetworkManager" style="swimlane;fontStyle=2;align=center;verticalAlign=top;childLayout=stackLayout;horizontal=1;startSize=26;horizontalStack=0;resizeParent=1;resizeLast=0;collapsible=1;marginBottom=0;rounded=0;shadow=0;strokeWidth=1;" parent="WIyWlLk6GJQsqaUBKTNV-1" vertex="1">
          <mxGeometry x="650" y="40" width="160" height="414" as="geometry">
            <mxRectangle x="230" y="140" width="160" height="26" as="alternateBounds" />
          </mxGeometry>
        </mxCell>
        <mxCell id="v-h0uJ12oh8mbD-hfhip-1" value="network" style="text;align=left;verticalAlign=top;spacingLeft=4;spacingRight=4;overflow=hidden;rotatable=0;points=[[0,0.5],[1,0.5]];portConstraint=eastwest;" parent="v-h0uJ12oh8mbD-hfhip-0" vertex="1">
          <mxGeometry y="26" width="160" height="18" as="geometry" />
        </mxCell>
        <mxCell id="v-h0uJ12oh8mbD-hfhip-2" value="- paths" style="text;align=left;verticalAlign=top;spacingLeft=4;spacingRight=4;overflow=hidden;rotatable=0;points=[[0,0.5],[1,0.5]];portConstraint=eastwest;rounded=0;shadow=0;html=0;" parent="v-h0uJ12oh8mbD-hfhip-0" vertex="1">
          <mxGeometry y="44" width="160" height="18" as="geometry" />
        </mxCell>
        <mxCell id="v-h0uJ12oh8mbD-hfhip-3" value="- link_fidelities" style="text;align=left;verticalAlign=top;spacingLeft=4;spacingRight=4;overflow=hidden;rotatable=0;points=[[0,0.5],[1,0.5]];portConstraint=eastwest;rounded=0;shadow=0;html=0;" parent="v-h0uJ12oh8mbD-hfhip-0" vertex="1">
          <mxGeometry y="62" width="160" height="18" as="geometry" />
        </mxCell>
        <mxCell id="v-h0uJ12oh8mbD-hfhip-4" value="- memory_assignment" style="text;align=left;verticalAlign=top;spacingLeft=4;spacingRight=4;overflow=hidden;rotatable=0;points=[[0,0.5],[1,0.5]];portConstraint=eastwest;rounded=0;shadow=0;html=0;" parent="v-h0uJ12oh8mbD-hfhip-0" vertex="1">
          <mxGeometry y="80" width="160" height="16" as="geometry" />
        </mxCell>
        <mxCell id="v-h0uJ12oh8mbD-hfhip-5" value="- available_links" style="text;align=left;verticalAlign=top;spacingLeft=4;spacingRight=4;overflow=hidden;rotatable=0;points=[[0,0.5],[1,0.5]];portConstraint=eastwest;rounded=0;shadow=0;html=0;" parent="v-h0uJ12oh8mbD-hfhip-0" vertex="1">
          <mxGeometry y="96" width="160" height="18" as="geometry" />
        </mxCell>
        <mxCell id="v-h0uJ12oh8mbD-hfhip-6" value="- requests_status" style="text;align=left;verticalAlign=top;spacingLeft=4;spacingRight=4;overflow=hidden;rotatable=0;points=[[0,0.5],[1,0.5]];portConstraint=eastwest;rounded=0;shadow=0;html=0;" parent="v-h0uJ12oh8mbD-hfhip-0" vertex="1">
          <mxGeometry y="114" width="160" height="18" as="geometry" />
        </mxCell>
        <mxCell id="v-h0uJ12oh8mbD-hfhip-7" value="- config" style="text;align=left;verticalAlign=top;spacingLeft=4;spacingRight=4;overflow=hidden;rotatable=0;points=[[0,0.5],[1,0.5]];portConstraint=eastwest;rounded=0;shadow=0;html=0;" parent="v-h0uJ12oh8mbD-hfhip-0" vertex="1">
          <mxGeometry y="132" width="160" height="20" as="geometry" />
        </mxCell>
        <mxCell id="v-h0uJ12oh8mbD-hfhip-8" value="" style="line;html=1;strokeWidth=1;align=left;verticalAlign=middle;spacingTop=-1;spacingLeft=3;spacingRight=3;rotatable=0;labelPosition=right;points=[];portConstraint=eastwest;" parent="v-h0uJ12oh8mbD-hfhip-0" vertex="1">
          <mxGeometry y="152" width="160" height="2" as="geometry" />
        </mxCell>
        <mxCell id="v-h0uJ12oh8mbD-hfhip-14" value="get_info_report" style="text;align=left;verticalAlign=top;spacingLeft=4;spacingRight=4;overflow=hidden;rotatable=0;points=[[0,0.5],[1,0.5]];portConstraint=eastwest;" parent="v-h0uJ12oh8mbD-hfhip-0" vertex="1">
          <mxGeometry y="154" width="160" height="20" as="geometry" />
        </mxCell>
        <mxCell id="v-h0uJ12oh8mbD-hfhip-23" value="get_config" style="text;align=left;verticalAlign=top;spacingLeft=4;spacingRight=4;overflow=hidden;rotatable=0;points=[[0,0.5],[1,0.5]];portConstraint=eastwest;" parent="v-h0uJ12oh8mbD-hfhip-0" vertex="1">
          <mxGeometry y="174" width="160" height="20" as="geometry" />
        </mxCell>
        <mxCell id="v-h0uJ12oh8mbD-hfhip-15" value="get_mem_position" style="text;align=left;verticalAlign=top;spacingLeft=4;spacingRight=4;overflow=hidden;rotatable=0;points=[[0,0.5],[1,0.5]];portConstraint=eastwest;" parent="v-h0uJ12oh8mbD-hfhip-0" vertex="1">
          <mxGeometry y="194" width="160" height="20" as="geometry" />
        </mxCell>
        <mxCell id="v-h0uJ12oh8mbD-hfhip-24" value="get_paths" style="text;align=left;verticalAlign=top;spacingLeft=4;spacingRight=4;overflow=hidden;rotatable=0;points=[[0,0.5],[1,0.5]];portConstraint=eastwest;" parent="v-h0uJ12oh8mbD-hfhip-0" vertex="1">
          <mxGeometry y="214" width="160" height="20" as="geometry" />
        </mxCell>
        <mxCell id="v-h0uJ12oh8mbD-hfhip-25" value="get_link" style="text;align=left;verticalAlign=top;spacingLeft=4;spacingRight=4;overflow=hidden;rotatable=0;points=[[0,0.5],[1,0.5]];portConstraint=eastwest;" parent="v-h0uJ12oh8mbD-hfhip-0" vertex="1">
          <mxGeometry y="234" width="160" height="20" as="geometry" />
        </mxCell>
        <mxCell id="v-h0uJ12oh8mbD-hfhip-9" value="- validate_file" style="text;align=left;verticalAlign=top;spacingLeft=4;spacingRight=4;overflow=hidden;rotatable=0;points=[[0,0.5],[1,0.5]];portConstraint=eastwest;" parent="v-h0uJ12oh8mbD-hfhip-0" vertex="1">
          <mxGeometry y="254" width="160" height="20" as="geometry" />
        </mxCell>
        <mxCell id="v-h0uJ12oh8mbD-hfhip-10" value="- create_network" style="text;align=left;verticalAlign=top;spacingLeft=4;spacingRight=4;overflow=hidden;rotatable=0;points=[[0,0.5],[1,0.5]];portConstraint=eastwest;" parent="v-h0uJ12oh8mbD-hfhip-0" vertex="1">
          <mxGeometry y="274" width="160" height="20" as="geometry" />
        </mxCell>
        <mxCell id="v-h0uJ12oh8mbD-hfhip-11" value="- measure_link_fidelity" style="text;align=left;verticalAlign=top;spacingLeft=4;spacingRight=4;overflow=hidden;rotatable=0;points=[[0,0.5],[1,0.5]];portConstraint=eastwest;" parent="v-h0uJ12oh8mbD-hfhip-0" vertex="1">
          <mxGeometry y="294" width="160" height="20" as="geometry" />
        </mxCell>
        <mxCell id="v-h0uJ12oh8mbD-hfhip-26" value="- dc_setup" style="text;align=left;verticalAlign=top;spacingLeft=4;spacingRight=4;overflow=hidden;rotatable=0;points=[[0,0.5],[1,0.5]];portConstraint=eastwest;" parent="v-h0uJ12oh8mbD-hfhip-0" vertex="1">
          <mxGeometry y="314" width="160" height="20" as="geometry" />
        </mxCell>
        <mxCell id="v-h0uJ12oh8mbD-hfhip-13" value="- release_path_resources" style="text;align=left;verticalAlign=top;spacingLeft=4;spacingRight=4;overflow=hidden;rotatable=0;points=[[0,0.5],[1,0.5]];portConstraint=eastwest;" parent="v-h0uJ12oh8mbD-hfhip-0" vertex="1">
          <mxGeometry y="334" width="160" height="20" as="geometry" />
        </mxCell>
        <mxCell id="v-h0uJ12oh8mbD-hfhip-12" value="- calculate_paths" style="text;align=left;verticalAlign=top;spacingLeft=4;spacingRight=4;overflow=hidden;rotatable=0;points=[[0,0.5],[1,0.5]];portConstraint=eastwest;" parent="v-h0uJ12oh8mbD-hfhip-0" vertex="1">
          <mxGeometry y="354" width="160" height="20" as="geometry" />
        </mxCell>
        <mxCell id="hw-acPsKjhym8oZziNfz-28" value="- handle_message" style="text;align=left;verticalAlign=top;spacingLeft=4;spacingRight=4;overflow=hidden;rotatable=0;points=[[0,0.5],[1,0.5]];portConstraint=eastwest;" vertex="1" parent="v-h0uJ12oh8mbD-hfhip-0">
          <mxGeometry y="374" width="160" height="20" as="geometry" />
        </mxCell>
        <mxCell id="v-h0uJ12oh8mbD-hfhip-27" value="- create_qprocessor" style="text;align=left;verticalAlign=top;spacingLeft=4;spacingRight=4;overflow=hidden;rotatable=0;points=[[0,0.5],[1,0.5]];portConstraint=eastwest;" parent="v-h0uJ12oh8mbD-hfhip-0" vertex="1">
          <mxGeometry y="394" width="160" height="20" as="geometry" />
        </mxCell>
        <mxCell id="v-h0uJ12oh8mbD-hfhip-20" value="LinkFidelityProtocol" style="swimlane;fontStyle=2;align=center;verticalAlign=top;childLayout=stackLayout;horizontal=1;startSize=26;horizontalStack=0;resizeParent=1;resizeLast=0;collapsible=1;marginBottom=0;rounded=0;shadow=0;strokeWidth=1;" parent="WIyWlLk6GJQsqaUBKTNV-1" vertex="1">
          <mxGeometry x="400" y="120" width="160" height="310" as="geometry">
            <mxRectangle x="230" y="140" width="160" height="26" as="alternateBounds" />
          </mxGeometry>
        </mxCell>
        <mxCell id="v-h0uJ12oh8mbD-hfhip-22" value="- origin" style="text;align=left;verticalAlign=top;spacingLeft=4;spacingRight=4;overflow=hidden;rotatable=0;points=[[0,0.5],[1,0.5]];portConstraint=eastwest;" parent="v-h0uJ12oh8mbD-hfhip-20" vertex="1">
          <mxGeometry y="26" width="160" height="20" as="geometry" />
        </mxCell>
        <mxCell id="v-h0uJ12oh8mbD-hfhip-37" value="- dest" style="text;align=left;verticalAlign=top;spacingLeft=4;spacingRight=4;overflow=hidden;rotatable=0;points=[[0,0.5],[1,0.5]];portConstraint=eastwest;" parent="v-h0uJ12oh8mbD-hfhip-20" vertex="1">
          <mxGeometry y="46" width="160" height="20" as="geometry" />
        </mxCell>
        <mxCell id="v-h0uJ12oh8mbD-hfhip-38" value="- link" style="text;align=left;verticalAlign=top;spacingLeft=4;spacingRight=4;overflow=hidden;rotatable=0;points=[[0,0.5],[1,0.5]];portConstraint=eastwest;" parent="v-h0uJ12oh8mbD-hfhip-20" vertex="1">
          <mxGeometry y="66" width="160" height="20" as="geometry" />
        </mxCell>
        <mxCell id="v-h0uJ12oh8mbD-hfhip-39" value="- num_runs" style="text;align=left;verticalAlign=top;spacingLeft=4;spacingRight=4;overflow=hidden;rotatable=0;points=[[0,0.5],[1,0.5]];portConstraint=eastwest;" parent="v-h0uJ12oh8mbD-hfhip-20" vertex="1">
          <mxGeometry y="86" width="160" height="20" as="geometry" />
        </mxCell>
        <mxCell id="v-h0uJ12oh8mbD-hfhip-40" value="- networkmanager" style="text;align=left;verticalAlign=top;spacingLeft=4;spacingRight=4;overflow=hidden;rotatable=0;points=[[0,0.5],[1,0.5]];portConstraint=eastwest;" parent="v-h0uJ12oh8mbD-hfhip-20" vertex="1">
          <mxGeometry y="106" width="160" height="20" as="geometry" />
        </mxCell>
        <mxCell id="v-h0uJ12oh8mbD-hfhip-41" value="- qsource_index" style="text;align=left;verticalAlign=top;spacingLeft=4;spacingRight=4;overflow=hidden;rotatable=0;points=[[0,0.5],[1,0.5]];portConstraint=eastwest;" parent="v-h0uJ12oh8mbD-hfhip-20" vertex="1">
          <mxGeometry y="126" width="160" height="20" as="geometry" />
        </mxCell>
        <mxCell id="v-h0uJ12oh8mbD-hfhip-42" value="name" style="text;align=left;verticalAlign=top;spacingLeft=4;spacingRight=4;overflow=hidden;rotatable=0;points=[[0,0.5],[1,0.5]];portConstraint=eastwest;" parent="v-h0uJ12oh8mbD-hfhip-20" vertex="1">
          <mxGeometry y="146" width="160" height="20" as="geometry" />
        </mxCell>
        <mxCell id="v-h0uJ12oh8mbD-hfhip-43" value="_memory_left" style="text;align=left;verticalAlign=top;spacingLeft=4;spacingRight=4;overflow=hidden;rotatable=0;points=[[0,0.5],[1,0.5]];portConstraint=eastwest;" parent="v-h0uJ12oh8mbD-hfhip-20" vertex="1">
          <mxGeometry y="166" width="160" height="20" as="geometry" />
        </mxCell>
        <mxCell id="v-h0uJ12oh8mbD-hfhip-44" value="_memory_right" style="text;align=left;verticalAlign=top;spacingLeft=4;spacingRight=4;overflow=hidden;rotatable=0;points=[[0,0.5],[1,0.5]];portConstraint=eastwest;" parent="v-h0uJ12oh8mbD-hfhip-20" vertex="1">
          <mxGeometry y="186" width="160" height="20" as="geometry" />
        </mxCell>
        <mxCell id="v-h0uJ12oh8mbD-hfhip-45" value="_port_left" style="text;align=left;verticalAlign=top;spacingLeft=4;spacingRight=4;overflow=hidden;rotatable=0;points=[[0,0.5],[1,0.5]];portConstraint=eastwest;" parent="v-h0uJ12oh8mbD-hfhip-20" vertex="1">
          <mxGeometry y="206" width="160" height="20" as="geometry" />
        </mxCell>
        <mxCell id="v-h0uJ12oh8mbD-hfhip-46" value="_port_right" style="text;align=left;verticalAlign=top;spacingLeft=4;spacingRight=4;overflow=hidden;rotatable=0;points=[[0,0.5],[1,0.5]];portConstraint=eastwest;" parent="v-h0uJ12oh8mbD-hfhip-20" vertex="1">
          <mxGeometry y="226" width="160" height="20" as="geometry" />
        </mxCell>
        <mxCell id="v-h0uJ12oh8mbD-hfhip-47" value="fidelities" style="text;align=left;verticalAlign=top;spacingLeft=4;spacingRight=4;overflow=hidden;rotatable=0;points=[[0,0.5],[1,0.5]];portConstraint=eastwest;" parent="v-h0uJ12oh8mbD-hfhip-20" vertex="1">
          <mxGeometry y="246" width="160" height="20" as="geometry" />
        </mxCell>
        <mxCell id="v-h0uJ12oh8mbD-hfhip-49" value="- delay" style="text;align=left;verticalAlign=top;spacingLeft=4;spacingRight=4;overflow=hidden;rotatable=0;points=[[0,0.5],[1,0.5]];portConstraint=eastwest;" parent="v-h0uJ12oh8mbD-hfhip-20" vertex="1">
          <mxGeometry y="266" width="160" height="20" as="geometry" />
        </mxCell>
        <mxCell id="v-h0uJ12oh8mbD-hfhip-21" value="" style="line;html=1;strokeWidth=1;align=left;verticalAlign=middle;spacingTop=-1;spacingLeft=3;spacingRight=3;rotatable=0;labelPosition=right;points=[];portConstraint=eastwest;" parent="v-h0uJ12oh8mbD-hfhip-20" vertex="1">
          <mxGeometry y="286" width="160" height="4" as="geometry" />
        </mxCell>
        <mxCell id="v-h0uJ12oh8mbD-hfhip-50" value="run" style="text;align=left;verticalAlign=top;spacingLeft=4;spacingRight=4;overflow=hidden;rotatable=0;points=[[0,0.5],[1,0.5]];portConstraint=eastwest;" parent="v-h0uJ12oh8mbD-hfhip-20" vertex="1">
          <mxGeometry y="290" width="160" height="20" as="geometry" />
        </mxCell>
        <mxCell id="v-h0uJ12oh8mbD-hfhip-28" value="" style="endArrow=none;shadow=0;strokeWidth=1;rounded=0;curved=0;endFill=0;edgeStyle=elbowEdgeStyle;elbow=vertical;exitX=0.25;exitY=0;exitDx=0;exitDy=0;" parent="WIyWlLk6GJQsqaUBKTNV-1" source="v-h0uJ12oh8mbD-hfhip-0" edge="1">
          <mxGeometry x="0.5" y="41" relative="1" as="geometry">
            <mxPoint x="460" y="315" as="sourcePoint" />
            <mxPoint x="520" y="120" as="targetPoint" />
            <mxPoint x="-40" y="32" as="offset" />
            <Array as="points">
              <mxPoint x="620" y="20" />
            </Array>
          </mxGeometry>
        </mxCell>
        <mxCell id="v-h0uJ12oh8mbD-hfhip-29" value="1" style="resizable=0;align=left;verticalAlign=bottom;labelBackgroundColor=none;fontSize=12;" parent="v-h0uJ12oh8mbD-hfhip-28" connectable="0" vertex="1">
          <mxGeometry x="-1" relative="1" as="geometry">
            <mxPoint y="4" as="offset" />
          </mxGeometry>
        </mxCell>
        <mxCell id="v-h0uJ12oh8mbD-hfhip-30" value="1" style="resizable=0;align=right;verticalAlign=bottom;labelBackgroundColor=none;fontSize=12;" parent="v-h0uJ12oh8mbD-hfhip-28" connectable="0" vertex="1">
          <mxGeometry x="1" relative="1" as="geometry">
            <mxPoint y="20" as="offset" />
          </mxGeometry>
        </mxCell>
        <mxCell id="v-h0uJ12oh8mbD-hfhip-31" value="1" style="resizable=0;align=left;verticalAlign=bottom;labelBackgroundColor=none;fontSize=12;" parent="WIyWlLk6GJQsqaUBKTNV-1" connectable="0" vertex="1">
          <mxGeometry x="521" y="122" as="geometry" />
        </mxCell>
        <mxCell id="v-h0uJ12oh8mbD-hfhip-32" value="" style="endArrow=none;shadow=0;strokeWidth=1;rounded=0;curved=0;endFill=0;edgeStyle=elbowEdgeStyle;elbow=vertical;exitX=0.5;exitY=0;exitDx=0;exitDy=0;entryX=0.25;entryY=0;entryDx=0;entryDy=0;" parent="WIyWlLk6GJQsqaUBKTNV-1" source="v-h0uJ12oh8mbD-hfhip-0" target="zkfFHV4jXpPFQw0GAbJ--0" edge="1">
          <mxGeometry x="0.5" y="41" relative="1" as="geometry">
            <mxPoint x="700" y="50" as="sourcePoint" />
            <mxPoint x="280" y="110" as="targetPoint" />
            <mxPoint x="-40" y="32" as="offset" />
            <Array as="points">
              <mxPoint x="500" y="10" />
            </Array>
          </mxGeometry>
        </mxCell>
        <mxCell id="v-h0uJ12oh8mbD-hfhip-33" value="1" style="resizable=0;align=left;verticalAlign=bottom;labelBackgroundColor=none;fontSize=12;" parent="v-h0uJ12oh8mbD-hfhip-32" connectable="0" vertex="1">
          <mxGeometry x="-1" relative="1" as="geometry">
            <mxPoint y="4" as="offset" />
          </mxGeometry>
        </mxCell>
        <mxCell id="v-h0uJ12oh8mbD-hfhip-34" value="0..*" style="resizable=0;align=right;verticalAlign=bottom;labelBackgroundColor=none;fontSize=12;" parent="v-h0uJ12oh8mbD-hfhip-32" connectable="0" vertex="1">
          <mxGeometry x="1" relative="1" as="geometry">
            <mxPoint x="22" y="1" as="offset" />
          </mxGeometry>
        </mxCell>
        <mxCell id="v-h0uJ12oh8mbD-hfhip-113" value="" style="endArrow=none;shadow=0;strokeWidth=1;rounded=0;curved=0;endFill=0;edgeStyle=elbowEdgeStyle;elbow=vertical;entryX=0.25;entryY=0;entryDx=0;entryDy=0;exitX=0.25;exitY=1;exitDx=0;exitDy=0;" parent="WIyWlLk6GJQsqaUBKTNV-1" source="hw-acPsKjhym8oZziNfz-0" target="Yz1U7CVcsts6lsaazN-v-6" edge="1">
          <mxGeometry x="0.5" y="41" relative="1" as="geometry">
            <mxPoint x="-45" y="320" as="sourcePoint" />
            <mxPoint x="275" y="390" as="targetPoint" />
            <mxPoint x="-40" y="32" as="offset" />
            <Array as="points" />
          </mxGeometry>
        </mxCell>
        <mxCell id="v-h0uJ12oh8mbD-hfhip-114" value="1" style="resizable=0;align=left;verticalAlign=bottom;labelBackgroundColor=none;fontSize=12;" parent="v-h0uJ12oh8mbD-hfhip-113" connectable="0" vertex="1">
          <mxGeometry x="-1" relative="1" as="geometry">
            <mxPoint y="17" as="offset" />
          </mxGeometry>
        </mxCell>
        <mxCell id="v-h0uJ12oh8mbD-hfhip-115" value="1..2" style="resizable=0;align=right;verticalAlign=bottom;labelBackgroundColor=none;fontSize=12;" parent="v-h0uJ12oh8mbD-hfhip-113" connectable="0" vertex="1">
          <mxGeometry x="1" relative="1" as="geometry">
            <mxPoint y="2" as="offset" />
          </mxGeometry>
        </mxCell>
        <mxCell id="v-h0uJ12oh8mbD-hfhip-116" value="" style="endArrow=none;shadow=0;strokeWidth=1;rounded=0;curved=0;endFill=0;edgeStyle=elbowEdgeStyle;elbow=vertical;entryX=0.75;entryY=0;entryDx=0;entryDy=0;exitX=0.5;exitY=1;exitDx=0;exitDy=0;" parent="WIyWlLk6GJQsqaUBKTNV-1" source="hw-acPsKjhym8oZziNfz-0" target="Yz1U7CVcsts6lsaazN-v-4" edge="1">
          <mxGeometry x="0.5" y="41" relative="1" as="geometry">
            <mxPoint x="5" y="350" as="sourcePoint" />
            <mxPoint x="30" y="450" as="targetPoint" />
            <mxPoint x="-40" y="32" as="offset" />
            <Array as="points" />
          </mxGeometry>
        </mxCell>
        <mxCell id="v-h0uJ12oh8mbD-hfhip-117" value="1" style="resizable=0;align=left;verticalAlign=bottom;labelBackgroundColor=none;fontSize=12;" parent="v-h0uJ12oh8mbD-hfhip-116" connectable="0" vertex="1">
          <mxGeometry x="-1" relative="1" as="geometry">
            <mxPoint y="17" as="offset" />
          </mxGeometry>
        </mxCell>
        <mxCell id="v-h0uJ12oh8mbD-hfhip-118" value="1..n" style="resizable=0;align=right;verticalAlign=bottom;labelBackgroundColor=none;fontSize=12;" parent="v-h0uJ12oh8mbD-hfhip-116" connectable="0" vertex="1">
          <mxGeometry x="1" relative="1" as="geometry">
            <mxPoint x="23" y="2" as="offset" />
          </mxGeometry>
        </mxCell>
        <mxCell id="v-h0uJ12oh8mbD-hfhip-119" value="" style="endArrow=none;shadow=0;strokeWidth=1;rounded=0;curved=0;endFill=0;edgeStyle=elbowEdgeStyle;elbow=vertical;entryX=0.5;entryY=0;entryDx=0;entryDy=0;exitX=0.75;exitY=1;exitDx=0;exitDy=0;" parent="WIyWlLk6GJQsqaUBKTNV-1" source="hw-acPsKjhym8oZziNfz-0" target="Yz1U7CVcsts6lsaazN-v-8" edge="1">
          <mxGeometry x="0.5" y="41" relative="1" as="geometry">
            <mxPoint x="25" y="390" as="sourcePoint" />
            <mxPoint x="209" y="439" as="targetPoint" />
            <mxPoint x="-40" y="32" as="offset" />
            <Array as="points" />
          </mxGeometry>
        </mxCell>
        <mxCell id="v-h0uJ12oh8mbD-hfhip-120" value="1" style="resizable=0;align=left;verticalAlign=bottom;labelBackgroundColor=none;fontSize=12;" parent="v-h0uJ12oh8mbD-hfhip-119" connectable="0" vertex="1">
          <mxGeometry x="-1" relative="1" as="geometry">
            <mxPoint y="17" as="offset" />
          </mxGeometry>
        </mxCell>
        <mxCell id="v-h0uJ12oh8mbD-hfhip-121" value="0..2" style="resizable=0;align=right;verticalAlign=bottom;labelBackgroundColor=none;fontSize=12;" parent="v-h0uJ12oh8mbD-hfhip-119" connectable="0" vertex="1">
          <mxGeometry x="1" relative="1" as="geometry">
            <mxPoint x="23" y="2" as="offset" />
          </mxGeometry>
        </mxCell>
        <mxCell id="v-h0uJ12oh8mbD-hfhip-122" value="" style="endArrow=none;shadow=0;strokeWidth=1;rounded=0;curved=0;endFill=0;edgeStyle=elbowEdgeStyle;elbow=vertical;entryX=0.5;entryY=0;entryDx=0;entryDy=0;exitX=0.485;exitY=0.9;exitDx=0;exitDy=0;exitPerimeter=0;" parent="WIyWlLk6GJQsqaUBKTNV-1" source="Yz1U7CVcsts6lsaazN-v-39" target="Yz1U7CVcsts6lsaazN-v-34" edge="1">
          <mxGeometry x="0.5" y="41" relative="1" as="geometry">
            <mxPoint x="96" y="512" as="sourcePoint" />
            <mxPoint x="30" y="553" as="targetPoint" />
            <mxPoint x="-40" y="32" as="offset" />
            <Array as="points">
              <mxPoint x="15" y="843" />
            </Array>
          </mxGeometry>
        </mxCell>
        <mxCell id="v-h0uJ12oh8mbD-hfhip-123" value="1" style="resizable=0;align=left;verticalAlign=bottom;labelBackgroundColor=none;fontSize=12;" parent="v-h0uJ12oh8mbD-hfhip-122" connectable="0" vertex="1">
          <mxGeometry x="-1" relative="1" as="geometry">
            <mxPoint y="17" as="offset" />
          </mxGeometry>
        </mxCell>
        <mxCell id="v-h0uJ12oh8mbD-hfhip-124" value="1" style="resizable=0;align=right;verticalAlign=bottom;labelBackgroundColor=none;fontSize=12;" parent="v-h0uJ12oh8mbD-hfhip-122" connectable="0" vertex="1">
          <mxGeometry x="1" relative="1" as="geometry">
            <mxPoint y="2" as="offset" />
          </mxGeometry>
        </mxCell>
        <mxCell id="v-h0uJ12oh8mbD-hfhip-125" value="" style="endArrow=none;shadow=0;strokeWidth=1;rounded=0;curved=0;endFill=0;edgeStyle=elbowEdgeStyle;elbow=vertical;entryX=0.569;entryY=0;entryDx=0;entryDy=0;entryPerimeter=0;exitX=0.5;exitY=1;exitDx=0;exitDy=0;" parent="WIyWlLk6GJQsqaUBKTNV-1" source="Yz1U7CVcsts6lsaazN-v-4" target="Yz1U7CVcsts6lsaazN-v-58" edge="1">
          <mxGeometry x="0.5" y="41" relative="1" as="geometry">
            <mxPoint x="185" y="773" as="sourcePoint" />
            <mxPoint x="40" y="873" as="targetPoint" />
            <mxPoint x="-40" y="32" as="offset" />
            <Array as="points">
              <mxPoint x="205" y="883" />
            </Array>
          </mxGeometry>
        </mxCell>
        <mxCell id="v-h0uJ12oh8mbD-hfhip-126" value="1" style="resizable=0;align=left;verticalAlign=bottom;labelBackgroundColor=none;fontSize=12;" parent="v-h0uJ12oh8mbD-hfhip-125" connectable="0" vertex="1">
          <mxGeometry x="-1" relative="1" as="geometry">
            <mxPoint y="17" as="offset" />
          </mxGeometry>
        </mxCell>
        <mxCell id="v-h0uJ12oh8mbD-hfhip-127" value="1" style="resizable=0;align=right;verticalAlign=bottom;labelBackgroundColor=none;fontSize=12;" parent="v-h0uJ12oh8mbD-hfhip-125" connectable="0" vertex="1">
          <mxGeometry x="1" relative="1" as="geometry">
            <mxPoint y="2" as="offset" />
          </mxGeometry>
        </mxCell>
        <mxCell id="v-h0uJ12oh8mbD-hfhip-129" value="" style="endArrow=none;shadow=0;strokeWidth=1;rounded=0;curved=0;endFill=0;edgeStyle=elbowEdgeStyle;elbow=vertical;entryX=0.75;entryY=1;entryDx=0;entryDy=0;exitX=0;exitY=0.5;exitDx=0;exitDy=0;" parent="WIyWlLk6GJQsqaUBKTNV-1" source="Yz1U7CVcsts6lsaazN-v-42" target="Yz1U7CVcsts6lsaazN-v-58" edge="1">
          <mxGeometry x="0.5" y="41" relative="1" as="geometry">
            <mxPoint x="200" y="773" as="sourcePoint" />
            <mxPoint x="211" y="1023" as="targetPoint" />
            <mxPoint x="-40" y="32" as="offset" />
            <Array as="points">
              <mxPoint x="260" y="1083" />
            </Array>
          </mxGeometry>
        </mxCell>
        <mxCell id="v-h0uJ12oh8mbD-hfhip-130" value="1" style="resizable=0;align=left;verticalAlign=bottom;labelBackgroundColor=none;fontSize=12;" parent="v-h0uJ12oh8mbD-hfhip-129" connectable="0" vertex="1">
          <mxGeometry x="-1" relative="1" as="geometry">
            <mxPoint x="-11" y="17" as="offset" />
          </mxGeometry>
        </mxCell>
        <mxCell id="v-h0uJ12oh8mbD-hfhip-131" value="1" style="resizable=0;align=right;verticalAlign=bottom;labelBackgroundColor=none;fontSize=12;" parent="v-h0uJ12oh8mbD-hfhip-129" connectable="0" vertex="1">
          <mxGeometry x="1" relative="1" as="geometry">
            <mxPoint x="-1" y="17" as="offset" />
          </mxGeometry>
        </mxCell>
        <mxCell id="v-h0uJ12oh8mbD-hfhip-132" value="" style="endArrow=block;endSize=10;endFill=0;shadow=0;strokeWidth=1;rounded=0;curved=0;edgeStyle=elbowEdgeStyle;elbow=vertical;entryX=0.5;entryY=0;entryDx=0;entryDy=0;exitX=1;exitY=0.027;exitDx=0;exitDy=0;exitPerimeter=0;" parent="WIyWlLk6GJQsqaUBKTNV-1" target="Yz1U7CVcsts6lsaazN-v-0" edge="1" source="Yz1U7CVcsts6lsaazN-v-8">
          <mxGeometry width="160" relative="1" as="geometry">
            <mxPoint x="445" y="613" as="sourcePoint" />
            <mxPoint x="465" y="423" as="targetPoint" />
            <Array as="points">
              <mxPoint x="540" y="600" />
            </Array>
          </mxGeometry>
        </mxCell>
        <mxCell id="v-h0uJ12oh8mbD-hfhip-135" value="" style="endArrow=block;endSize=10;endFill=0;shadow=0;strokeWidth=1;rounded=0;curved=0;edgeStyle=elbowEdgeStyle;elbow=vertical;entryX=0.5;entryY=0;entryDx=0;entryDy=0;exitX=1.015;exitY=0.045;exitDx=0;exitDy=0;exitPerimeter=0;" parent="WIyWlLk6GJQsqaUBKTNV-1" target="Yz1U7CVcsts6lsaazN-v-0" edge="1" source="Yz1U7CVcsts6lsaazN-v-4">
          <mxGeometry width="160" relative="1" as="geometry">
            <mxPoint x="255" y="583" as="sourcePoint" />
            <mxPoint x="635" y="603" as="targetPoint" />
            <Array as="points">
              <mxPoint x="440" y="570" />
            </Array>
          </mxGeometry>
        </mxCell>
        <mxCell id="v-h0uJ12oh8mbD-hfhip-136" value="" style="endArrow=block;endSize=10;endFill=0;shadow=0;strokeWidth=1;rounded=0;curved=0;edgeStyle=elbowEdgeStyle;elbow=vertical;exitX=1.015;exitY=0.039;exitDx=0;exitDy=0;entryX=0.5;entryY=0;entryDx=0;entryDy=0;exitPerimeter=0;" parent="WIyWlLk6GJQsqaUBKTNV-1" source="Yz1U7CVcsts6lsaazN-v-6" target="Yz1U7CVcsts6lsaazN-v-0" edge="1">
          <mxGeometry width="160" relative="1" as="geometry">
            <mxPoint x="266" y="595" as="sourcePoint" />
            <mxPoint x="635" y="633" as="targetPoint" />
            <Array as="points">
              <mxPoint x="350" y="540" />
            </Array>
          </mxGeometry>
        </mxCell>
        <mxCell id="hw-acPsKjhym8oZziNfz-0" value="RouteProtocol" style="swimlane;fontStyle=2;align=center;verticalAlign=top;childLayout=stackLayout;horizontal=1;startSize=26;horizontalStack=0;resizeParent=1;resizeLast=0;collapsible=1;marginBottom=0;rounded=0;shadow=0;strokeWidth=1;" vertex="1" parent="WIyWlLk6GJQsqaUBKTNV-1">
          <mxGeometry x="200" y="120" width="160" height="390" as="geometry">
            <mxRectangle x="230" y="140" width="160" height="26" as="alternateBounds" />
          </mxGeometry>
        </mxCell>
        <mxCell id="hw-acPsKjhym8oZziNfz-1" value="- path" style="text;align=left;verticalAlign=top;spacingLeft=4;spacingRight=4;overflow=hidden;rotatable=0;points=[[0,0.5],[1,0.5]];portConstraint=eastwest;" vertex="1" parent="hw-acPsKjhym8oZziNfz-0">
          <mxGeometry y="26" width="160" height="20" as="geometry" />
        </mxCell>
        <mxCell id="hw-acPsKjhym8oZziNfz-3" value="- networkmanager" style="text;align=left;verticalAlign=top;spacingLeft=4;spacingRight=4;overflow=hidden;rotatable=0;points=[[0,0.5],[1,0.5]];portConstraint=eastwest;" vertex="1" parent="hw-acPsKjhym8oZziNfz-0">
          <mxGeometry y="46" width="160" height="20" as="geometry" />
        </mxCell>
        <mxCell id="hw-acPsKjhym8oZziNfz-7" value="- start_expression" style="text;align=left;verticalAlign=top;spacingLeft=4;spacingRight=4;overflow=hidden;rotatable=0;points=[[0,0.5],[1,0.5]];portConstraint=eastwest;" vertex="1" parent="hw-acPsKjhym8oZziNfz-0">
          <mxGeometry y="66" width="160" height="20" as="geometry" />
        </mxCell>
        <mxCell id="hw-acPsKjhym8oZziNfz-4" value="- purif_rounds" style="text;align=left;verticalAlign=top;spacingLeft=4;spacingRight=4;overflow=hidden;rotatable=0;points=[[0,0.5],[1,0.5]];portConstraint=eastwest;" vertex="1" parent="hw-acPsKjhym8oZziNfz-0">
          <mxGeometry y="86" width="160" height="20" as="geometry" />
        </mxCell>
        <mxCell id="hw-acPsKjhym8oZziNfz-5" value="name" style="text;align=left;verticalAlign=top;spacingLeft=4;spacingRight=4;overflow=hidden;rotatable=0;points=[[0,0.5],[1,0.5]];portConstraint=eastwest;" vertex="1" parent="hw-acPsKjhym8oZziNfz-0">
          <mxGeometry y="106" width="160" height="20" as="geometry" />
        </mxCell>
        <mxCell id="hw-acPsKjhym8oZziNfz-6" value="- mem_posA_1" style="text;align=left;verticalAlign=top;spacingLeft=4;spacingRight=4;overflow=hidden;rotatable=0;points=[[0,0.5],[1,0.5]];portConstraint=eastwest;" vertex="1" parent="hw-acPsKjhym8oZziNfz-0">
          <mxGeometry y="126" width="160" height="20" as="geometry" />
        </mxCell>
        <mxCell id="hw-acPsKjhym8oZziNfz-23" value="- mem_posA_2" style="text;align=left;verticalAlign=top;spacingLeft=4;spacingRight=4;overflow=hidden;rotatable=0;points=[[0,0.5],[1,0.5]];portConstraint=eastwest;" vertex="1" parent="hw-acPsKjhym8oZziNfz-0">
          <mxGeometry y="146" width="160" height="20" as="geometry" />
        </mxCell>
        <mxCell id="hw-acPsKjhym8oZziNfz-18" value="- mem_posB_1" style="text;align=left;verticalAlign=top;spacingLeft=4;spacingRight=4;overflow=hidden;rotatable=0;points=[[0,0.5],[1,0.5]];portConstraint=eastwest;" vertex="1" parent="hw-acPsKjhym8oZziNfz-0">
          <mxGeometry y="166" width="160" height="20" as="geometry" />
        </mxCell>
        <mxCell id="hw-acPsKjhym8oZziNfz-24" value="- mem_posB_2" style="text;align=left;verticalAlign=top;spacingLeft=4;spacingRight=4;overflow=hidden;rotatable=0;points=[[0,0.5],[1,0.5]];portConstraint=eastwest;" vertex="1" parent="hw-acPsKjhym8oZziNfz-0">
          <mxGeometry y="186" width="160" height="20" as="geometry" />
        </mxCell>
        <mxCell id="hw-acPsKjhym8oZziNfz-19" value="- portleft_1" style="text;align=left;verticalAlign=top;spacingLeft=4;spacingRight=4;overflow=hidden;rotatable=0;points=[[0,0.5],[1,0.5]];portConstraint=eastwest;" vertex="1" parent="hw-acPsKjhym8oZziNfz-0">
          <mxGeometry y="206" width="160" height="20" as="geometry" />
        </mxCell>
        <mxCell id="hw-acPsKjhym8oZziNfz-25" value="- portleft_2" style="text;align=left;verticalAlign=top;spacingLeft=4;spacingRight=4;overflow=hidden;rotatable=0;points=[[0,0.5],[1,0.5]];portConstraint=eastwest;" vertex="1" parent="hw-acPsKjhym8oZziNfz-0">
          <mxGeometry y="226" width="160" height="20" as="geometry" />
        </mxCell>
        <mxCell id="hw-acPsKjhym8oZziNfz-20" value="- start_purif_signal" style="text;align=left;verticalAlign=top;spacingLeft=4;spacingRight=4;overflow=hidden;rotatable=0;points=[[0,0.5],[1,0.5]];portConstraint=eastwest;" vertex="1" parent="hw-acPsKjhym8oZziNfz-0">
          <mxGeometry y="246" width="160" height="20" as="geometry" />
        </mxCell>
        <mxCell id="hw-acPsKjhym8oZziNfz-21" value="- purif_result_signal" style="text;align=left;verticalAlign=top;spacingLeft=4;spacingRight=4;overflow=hidden;rotatable=0;points=[[0,0.5],[1,0.5]];portConstraint=eastwest;" vertex="1" parent="hw-acPsKjhym8oZziNfz-0">
          <mxGeometry y="266" width="160" height="20" as="geometry" />
        </mxCell>
        <mxCell id="hw-acPsKjhym8oZziNfz-22" value="- restart_signal" style="text;align=left;verticalAlign=top;spacingLeft=4;spacingRight=4;overflow=hidden;rotatable=0;points=[[0,0.5],[1,0.5]];portConstraint=eastwest;" vertex="1" parent="hw-acPsKjhym8oZziNfz-0">
          <mxGeometry y="286" width="160" height="20" as="geometry" />
        </mxCell>
        <mxCell id="hw-acPsKjhym8oZziNfz-8" value="" style="line;html=1;strokeWidth=1;align=left;verticalAlign=middle;spacingTop=-1;spacingLeft=3;spacingRight=3;rotatable=0;labelPosition=right;points=[];portConstraint=eastwest;" vertex="1" parent="hw-acPsKjhym8oZziNfz-0">
          <mxGeometry y="306" width="160" height="4" as="geometry" />
        </mxCell>
        <mxCell id="hw-acPsKjhym8oZziNfz-9" value="run" style="text;align=left;verticalAlign=top;spacingLeft=4;spacingRight=4;overflow=hidden;rotatable=0;points=[[0,0.5],[1,0.5]];portConstraint=eastwest;" vertex="1" parent="hw-acPsKjhym8oZziNfz-0">
          <mxGeometry y="310" width="160" height="20" as="geometry" />
        </mxCell>
        <mxCell id="hw-acPsKjhym8oZziNfz-26" value="signal_sources" style="text;align=left;verticalAlign=top;spacingLeft=4;spacingRight=4;overflow=hidden;rotatable=0;points=[[0,0.5],[1,0.5]];portConstraint=eastwest;" vertex="1" parent="hw-acPsKjhym8oZziNfz-0">
          <mxGeometry y="330" width="160" height="20" as="geometry" />
        </mxCell>
        <mxCell id="hw-acPsKjhym8oZziNfz-10" value="set_purif_rounds" style="text;align=left;verticalAlign=top;spacingLeft=4;spacingRight=4;overflow=hidden;rotatable=0;points=[[0,0.5],[1,0.5]];portConstraint=eastwest;" vertex="1" parent="hw-acPsKjhym8oZziNfz-0">
          <mxGeometry y="350" width="160" height="20" as="geometry" />
        </mxCell>
        <mxCell id="hw-acPsKjhym8oZziNfz-27" value="init_second_link_protocols" style="text;align=left;verticalAlign=top;spacingLeft=4;spacingRight=4;overflow=hidden;rotatable=0;points=[[0,0.5],[1,0.5]];portConstraint=eastwest;" vertex="1" parent="hw-acPsKjhym8oZziNfz-0">
          <mxGeometry y="370" width="160" height="20" as="geometry" />
        </mxCell>
        <mxCell id="hw-acPsKjhym8oZziNfz-14" value="" style="endArrow=none;shadow=0;strokeWidth=1;rounded=0;curved=0;endFill=0;edgeStyle=elbowEdgeStyle;elbow=vertical;entryX=0;entryY=0.5;entryDx=0;entryDy=0;exitX=1;exitY=0.5;exitDx=0;exitDy=0;" edge="1" parent="WIyWlLk6GJQsqaUBKTNV-1" source="v-h0uJ12oh8mbD-hfhip-59" target="hw-acPsKjhym8oZziNfz-7">
          <mxGeometry x="0.5" y="41" relative="1" as="geometry">
            <mxPoint x="250" y="360" as="sourcePoint" />
            <mxPoint x="-2" y="460" as="targetPoint" />
            <mxPoint x="-40" y="32" as="offset" />
            <Array as="points" />
          </mxGeometry>
        </mxCell>
        <mxCell id="hw-acPsKjhym8oZziNfz-15" value="1" style="resizable=0;align=left;verticalAlign=bottom;labelBackgroundColor=none;fontSize=12;" connectable="0" vertex="1" parent="hw-acPsKjhym8oZziNfz-14">
          <mxGeometry x="-1" relative="1" as="geometry">
            <mxPoint y="17" as="offset" />
          </mxGeometry>
        </mxCell>
        <mxCell id="hw-acPsKjhym8oZziNfz-16" value="1" style="resizable=0;align=right;verticalAlign=bottom;labelBackgroundColor=none;fontSize=12;" connectable="0" vertex="1" parent="hw-acPsKjhym8oZziNfz-14">
          <mxGeometry x="1" relative="1" as="geometry">
            <mxPoint y="2" as="offset" />
          </mxGeometry>
        </mxCell>
        <mxCell id="hw-acPsKjhym8oZziNfz-17" value="" style="endArrow=block;endSize=10;endFill=0;shadow=0;strokeWidth=1;rounded=0;curved=0;edgeStyle=elbowEdgeStyle;elbow=vertical;exitX=0.5;exitY=0;exitDx=0;exitDy=0;entryX=0.5;entryY=1;entryDx=0;entryDy=0;" edge="1" parent="WIyWlLk6GJQsqaUBKTNV-1" source="hw-acPsKjhym8oZziNfz-0" target="zkfFHV4jXpPFQw0GAbJ--17">
          <mxGeometry width="160" relative="1" as="geometry">
            <mxPoint x="90" y="130" as="sourcePoint" />
            <mxPoint x="360" y="70" as="targetPoint" />
            <Array as="points" />
          </mxGeometry>
        </mxCell>
        <mxCell id="hw-acPsKjhym8oZziNfz-29" value="" style="endArrow=block;endSize=10;endFill=0;shadow=0;strokeWidth=1;rounded=0;curved=0;edgeStyle=elbowEdgeStyle;elbow=vertical;exitX=0.5;exitY=0;exitDx=0;exitDy=0;entryX=0.5;entryY=1;entryDx=0;entryDy=0;" edge="1" parent="WIyWlLk6GJQsqaUBKTNV-1" source="v-h0uJ12oh8mbD-hfhip-20" target="zkfFHV4jXpPFQw0GAbJ--17">
          <mxGeometry width="160" relative="1" as="geometry">
            <mxPoint x="290" y="130" as="sourcePoint" />
            <mxPoint x="280" y="80" as="targetPoint" />
            <Array as="points" />
          </mxGeometry>
        </mxCell>
      </root>
    </mxGraphModel>
  </diagram>
</mxfile>
